<svg id="SvgjsSvg1006" width="758.7000122070312" height="549" xmlns="http://www.w3.org/2000/svg" version="1.1" xmlns:xlink="http://www.w3.org/1999/xlink" xmlns:svgjs="http://svgjs.com/svgjs"><defs id="SvgjsDefs1007"><pattern patternUnits="userSpaceOnUse" id="pattern_mark_0" width="300" height="300"><text x="150" y="100" fill="rgba(229,229,229,0.8)" font-size="18" transform="rotate(-45, 150, 150)" style="dominant-baseline: middle; text-anchor: middle;"></text></pattern><pattern patternUnits="userSpaceOnUse" id="pattern_mark_1" width="300" height="300"><text x="150" y="200" fill="rgba(229,229,229,0.8)" font-size="18" transform="rotate(-45, 150, 150)" style="dominant-baseline: middle; text-anchor: middle;"></text></pattern><marker id="SvgjsMarker1031" markerWidth="16" markerHeight="16" refX="11" refY="8" viewBox="0 0 16 16" orient="auto" markerUnits="userSpaceOnUse" stroke-dasharray="0,0"><path id="SvgjsPath1032" d="M0,0 L10,8 L0,16" fill="none" stroke="#323232" stroke-width="2"></path></marker><marker id="SvgjsMarker1075" markerWidth="13" markerHeight="9" refX="9.5" refY="4.5" viewBox="0 0 13 9" orient="auto" markerUnits="userSpaceOnUse" stroke-dasharray="0,0"><path id="SvgjsPath1076" d="M0,0 L13,4.5 L0,9 L0,0" fill="#323232" stroke="#323232" stroke-width="1"></path></marker><marker id="SvgjsMarker1093" markerWidth="13" markerHeight="9" refX="9.5" refY="4.5" viewBox="0 0 13 9" orient="auto" markerUnits="userSpaceOnUse" stroke-dasharray="0,0"><path id="SvgjsPath1094" d="M0,0 L13,4.5 L0,9 L0,0" fill="#323232" stroke="#323232" stroke-width="1"></path></marker><marker id="SvgjsMarker1097" markerWidth="13" markerHeight="9" refX="9.5" refY="4.5" viewBox="0 0 13 9" orient="auto" markerUnits="userSpaceOnUse" stroke-dasharray="0,0"><path id="SvgjsPath1098" d="M0,0 L13,4.5 L0,9 L0,0" fill="#323232" stroke="#323232" stroke-width="1"></path></marker><marker id="SvgjsMarker1115" markerWidth="13" markerHeight="9" refX="9.5" refY="4.5" viewBox="0 0 13 9" orient="auto" markerUnits="userSpaceOnUse" stroke-dasharray="0,0"><path id="SvgjsPath1116" d="M0,0 L13,4.5 L0,9 L0,0" fill="#323232" stroke="#323232" stroke-width="1"></path></marker><marker id="SvgjsMarker1127" markerWidth="13" markerHeight="9" refX="9.5" refY="4.5" viewBox="0 0 13 9" orient="auto" markerUnits="userSpaceOnUse" stroke-dasharray="0,0"><path id="SvgjsPath1128" d="M0,0 L13,4.5 L0,9 L0,0" fill="#323232" stroke="#323232" stroke-width="1"></path></marker><marker id="SvgjsMarker1131" markerWidth="13" markerHeight="9" refX="9.5" refY="4.5" viewBox="0 0 13 9" orient="auto" markerUnits="userSpaceOnUse" stroke-dasharray="0,0"><path id="SvgjsPath1132" d="M0,0 L13,4.5 L0,9 L0,0" fill="#323232" stroke="#323232" stroke-width="1"></path></marker><marker id="SvgjsMarker1157" markerWidth="13" markerHeight="9" refX="9.5" refY="4.5" viewBox="0 0 13 9" orient="auto" markerUnits="userSpaceOnUse" stroke-dasharray="0,0"><path id="SvgjsPath1158" d="M0,0 L13,4.5 L0,9 L0,0" fill="#323232" stroke="#323232" stroke-width="1"></path></marker><marker id="SvgjsMarker1161" markerWidth="13" markerHeight="9" refX="9.5" refY="4.5" viewBox="0 0 13 9" orient="auto" markerUnits="userSpaceOnUse" stroke-dasharray="0,0"><path id="SvgjsPath1162" d="M0,0 L13,4.5 L0,9 L0,0" fill="#323232" stroke="#323232" stroke-width="1"></path></marker></defs><rect id="svgbackgroundid" width="758.7000122070312" height="549" fill="#ffffff"></rect><rect id="SvgjsRect1009" width="758.7000122070312" height="549" fill="url(#pattern_mark_0)"></rect><rect id="SvgjsRect1010" width="758.7000122070312" height="549" fill="url(#pattern_mark_1)"></rect><g id="SvgjsG1011" transform="translate(334.6999969482422,39.80000305175781)"><path id="SvgjsPath1012" d="M 0 20C 0 -6.666666666666667 40 -6.666666666666667 40 20C 40 46.666666666666664 0 46.666666666666664 0 20Z" stroke="none" fill-opacity="1" fill="#323232"></path><g id="SvgjsG1013"><text id="SvgjsText1014" font-family="微软雅黑" text-anchor="middle" font-size="18px" width="80px" fill="#323232" font-weight="400" align="middle" lineHeight="125%" anchor="middle" family="微软雅黑" size="18px" weight="400" font-style="" opacity="1" y="39.25" transform="rotate(0)"></text></g></g><g id="SvgjsG1015" transform="translate(265.3000030517578,107.80000305175781)"><path id="SvgjsPath1016" d="M 0 18Q 0 0 18 0L 160.79998779296875 0Q 178.79998779296875 0 178.79998779296875 18L 178.79998779296875 28Q 178.79998779296875 46 160.79998779296875 46L 18 46Q 0 46 0 28L 0 18Z" stroke="rgba(33,41,48,1)" stroke-width="2" fill-opacity="1" fill="#ffffff"></path><g id="SvgjsG1017"><text id="SvgjsText1018" font-family="微软雅黑" text-anchor="middle" font-size="18px" width="159px" fill="#323232" font-weight="400" align="middle" lineHeight="125%" anchor="middle" family="微软雅黑" size="18px" weight="400" font-style="" opacity="1" y="-3.75" transform="rotate(0)"><tspan id="SvgjsTspan1019" dy="22.5" x="89.5"><tspan id="SvgjsTspan1020" style="">clicks the Start</tspan></tspan><tspan id="SvgjsTspan1021" dy="22.5" x="89.5"><tspan id="SvgjsTspan1022" style=""> button</tspan></tspan></text></g></g><g id="SvgjsG1023" transform="translate(341.09999084472656,483.8000030517578)"><path id="SvgjsPath1024" d="M 0 20C 0 -6.666666666666667 40 -6.666666666666667 40 20C 40 46.666666666666664 0 46.666666666666664 0 20Z" stroke="rgba(33,41,48,1)" stroke-width="4" fill-opacity="1" fill="#ffffff"></path><path id="SvgjsPath1025" d="M 10 20C 10 6.666666666666666 30 6.666666666666666 30 20C 30 33.333333333333336 10 33.333333333333336 10 20Z" stroke="none" fill-opacity="1" fill="#323232"></path><path id="SvgjsPath1026" d="M 0 20C 0 -6.666666666666667 40 -6.666666666666667 40 20C 40 46.666666666666664 0 46.666666666666664 0 20Z" stroke="none" fill="none"></path><g id="SvgjsG1027"><text id="SvgjsText1028" font-family="微软雅黑" text-anchor="middle" font-size="18px" width="80px" fill="#323232" font-weight="400" align="middle" lineHeight="125%" anchor="middle" family="微软雅黑" size="18px" weight="400" font-style="" opacity="1" y="39.25" transform="rotate(0)"></text></g></g><g id="SvgjsG1029"><path id="SvgjsPath1030" d="M354.6999969482422 80.80000305175781L354.6999969482422 93.80000305175781L354.6999969482422 93.80000305175781L354.6999969482422 105.80000305175781" stroke="#323232" stroke-width="2" fill="none" marker-end="url(#SvgjsMarker1031)"></path></g><g id="SvgjsG1033" transform="translate(38.09999084472656,224.8000030517578)"><path id="SvgjsPath1034" d="M 0 18Q 0 0 18 0L 123 0Q 141 0 141 18L 141 28Q 141 46 123 46L 18 46Q 0 46 0 28L 0 18Z" stroke="rgba(33,41,48,1)" stroke-width="2" fill-opacity="1" fill="#ffffff"></path><g id="SvgjsG1035"><text id="SvgjsText1036" font-family="微软雅黑" text-anchor="middle" font-size="18px" width="121px" fill="#323232" font-weight="400" align="middle" lineHeight="125%" anchor="middle" family="微软雅黑" size="18px" weight="400" font-style="" opacity="1" y="-3.75" transform="rotate(0)"><tspan id="SvgjsTspan1037" dy="22.5" x="70.5"><tspan id="SvgjsTspan1038" style="">set current</tspan></tspan><tspan id="SvgjsTspan1039" dy="22.5" x="70.5"><tspan id="SvgjsTspan1040" style="">activity</tspan></tspan></text></g></g><g id="SvgjsG1041" transform="translate(102.09999084472656,25.000003814697266)"><path id="SvgjsPath1042" d="M 0 0L 116.60000610351562 0L 132.60000610351562 16L 132.60000610351562 54.79999923706055L 0 54.79999923706055L 0 0Z" stroke="rgba(33,41,48,1)" stroke-width="2" fill-opacity="1" fill="#ffffff"></path><path id="SvgjsPath1043" d="M 116.60000610351562 0L 116.60000610351562 16L 132.60000610351562 16" stroke="rgba(33,41,48,1)" stroke-width="2" fill-opacity="1" fill="#ffffff"></path><path id="SvgjsPath1044" d="M 0 0L 116.60000610351562 0L 132.60000610351562 16L 132.60000610351562 54.79999923706055L 0 54.79999923706055L 0 0Z" stroke="rgba(33,41,48,1)" stroke-width="2" fill="none"></path><g id="SvgjsG1045"><text id="SvgjsText1046" font-family="微软雅黑" text-anchor="middle" font-size="18px" width="113px" fill="#323232" font-weight="400" align="middle" lineHeight="125%" anchor="middle" family="微软雅黑" size="18px" weight="400" font-style="" opacity="1" y="11.649999618530273" transform="rotate(0)"><tspan id="SvgjsTspan1047" dy="22.5" x="66.5"><tspan id="SvgjsTspan1048" style="">initial node</tspan></tspan></text></g></g><g id="SvgjsG1049"><path id="SvgjsPath1050" d="M373.7009761200789 59.75576070896267L234.6999969482422 53.60000419616699" stroke-dasharray="8,5" stroke="#323232" stroke-width="2" fill="none"></path></g><g id="SvgjsG1051"><path id="SvgjsPath1052" d="M265.29962361533813 123.67525365330829L202.09999084472656 119.60000419616699" stroke-dasharray="8,5" stroke="#323232" stroke-width="2" fill="none"></path></g><g id="SvgjsG1053" transform="translate(81.09999084472656,115.40000343322754)"><path id="SvgjsPath1054" d="M 0 0L 116.60000610351562 0L 132.60000610351562 16L 132.60000610351562 54.79999923706055L 0 54.79999923706055L 0 0Z" stroke="rgba(33,41,48,1)" stroke-width="2" fill-opacity="1" fill="#ffffff"></path><path id="SvgjsPath1055" d="M 116.60000610351562 0L 116.60000610351562 16L 132.60000610351562 16" stroke="rgba(33,41,48,1)" stroke-width="2" fill-opacity="1" fill="#ffffff"></path><path id="SvgjsPath1056" d="M 0 0L 116.60000610351562 0L 132.60000610351562 16L 132.60000610351562 54.79999923706055L 0 54.79999923706055L 0 0Z" stroke="rgba(33,41,48,1)" stroke-width="2" fill="none"></path><g id="SvgjsG1057"><text id="SvgjsText1058" font-family="微软雅黑" text-anchor="middle" font-size="18px" width="113px" fill="#323232" font-weight="400" align="middle" lineHeight="125%" anchor="middle" family="微软雅黑" size="18px" weight="400" font-style="" opacity="1" y="11.649999618530273" transform="rotate(0)"><tspan id="SvgjsTspan1059" dy="22.5" x="66.5"><tspan id="SvgjsTspan1060" style="">action</tspan></tspan></text></g></g><g id="SvgjsG1061" transform="translate(336.09999084472656,181.8000030517578)"><path id="SvgjsPath1062" d="M 0 16.70000457763672L 20 0L 40 16.70000457763672L 20 33.40000915527344L 0 16.70000457763672Z" stroke="rgba(33,41,48,1)" stroke-width="2" fill-opacity="1" fill="#ffffff"></path></g><g id="SvgjsG1063" transform="translate(512.6999969482422,103.40000343322754)"><path id="SvgjsPath1064" d="M 0 0L 116.60000610351562 0L 132.60000610351562 16L 132.60000610351562 54.79999923706055L 0 54.79999923706055L 0 0Z" stroke="rgba(33,41,48,1)" stroke-width="2" fill-opacity="1" fill="#ffffff"></path><path id="SvgjsPath1065" d="M 116.60000610351562 0L 116.60000610351562 16L 132.60000610351562 16" stroke="rgba(33,41,48,1)" stroke-width="2" fill-opacity="1" fill="#ffffff"></path><path id="SvgjsPath1066" d="M 0 0L 116.60000610351562 0L 132.60000610351562 16L 132.60000610351562 54.79999923706055L 0 54.79999923706055L 0 0Z" stroke="rgba(33,41,48,1)" stroke-width="2" fill="none"></path><g id="SvgjsG1067"><text id="SvgjsText1068" font-family="微软雅黑" text-anchor="middle" font-size="18px" width="113px" fill="#323232" font-weight="400" align="middle" lineHeight="125%" anchor="middle" family="微软雅黑" size="18px" weight="400" font-style="" opacity="1" y="11.649999618530273" transform="rotate(0)"><tspan id="SvgjsTspan1069" dy="22.5" x="66.5"><tspan id="SvgjsTspan1070" style="">Decision</tspan></tspan></text></g></g><g id="SvgjsG1071"><path id="SvgjsPath1072" d="M508.09999084472656 131.40000343322754L357.04917252898304 181.48527439041277" stroke-dasharray="8,5" stroke="#323232" stroke-width="2" fill="none"></path></g><g id="SvgjsG1073"><path id="SvgjsPath1074" d="M335.09999084472656 198.50000762939453L108.59999084472656 198.50000762939453L108.59999084472656 221.85000305175782" stroke="#323232" stroke-width="1.5" fill="none" marker-end="url(#SvgjsMarker1075)"></path></g><g id="SvgjsG1077" transform="translate(24.99999237060547,298.3000030517578)"><path id="SvgjsPath1078" d="M 0 18Q 0 0 18 0L 149.1999969482422 0Q 167.1999969482422 0 167.1999969482422 18L 167.1999969482422 28Q 167.1999969482422 46 149.1999969482422 46L 18 46Q 0 46 0 28L 0 18Z" stroke="rgba(33,41,48,1)" stroke-width="2" fill-opacity="1" fill="#ffffff"></path><g id="SvgjsG1079"><text id="SvgjsText1080" font-family="微软雅黑" text-anchor="middle" font-size="18px" width="148px" fill="#323232" font-weight="400" align="middle" lineHeight="125%" anchor="middle" family="微软雅黑" size="18px" weight="400" font-style="" opacity="1" y="7.25" transform="rotate(0)"><tspan id="SvgjsTspan1081" dy="22.5" x="84"><tspan id="SvgjsTspan1082" style="">set activity title</tspan></tspan></text></g></g><g id="SvgjsG1083" transform="translate(32.59999084472656,365.8000030517578)"><path id="SvgjsPath1084" d="M 0 18Q 0 0 18 0L 134 0Q 152 0 152 18L 152 28Q 152 46 134 46L 18 46Q 0 46 0 28L 0 18Z" stroke="rgba(33,41,48,1)" stroke-width="2" fill-opacity="1" fill="#ffffff"></path><g id="SvgjsG1085"><text id="SvgjsText1086" font-family="微软雅黑" text-anchor="middle" font-size="18px" width="132px" fill="#323232" font-weight="400" align="middle" lineHeight="125%" anchor="middle" family="微软雅黑" size="18px" weight="400" font-style="" opacity="1" y="-3.75" transform="rotate(0)"><tspan id="SvgjsTspan1087" dy="22.5" x="76"><tspan id="SvgjsTspan1088" style="">set button's </tspan></tspan><tspan id="SvgjsTspan1089" dy="22.5" x="76"><tspan id="SvgjsTspan1090" style="">background</tspan></tspan></text></g></g><g id="SvgjsG1091"><path id="SvgjsPath1092" d="M108.59999084472656 271.8000030517578L108.59999084472656 295.35000305175777" stroke="#323232" stroke-width="1.5" fill="none" marker-end="url(#SvgjsMarker1093)"></path></g><g id="SvgjsG1095"><path id="SvgjsPath1096" d="M108.59999084472656 345.3000030517578L108.59999084472656 362.85000305175777" stroke="#323232" stroke-width="1.5" fill="none" marker-end="url(#SvgjsMarker1097)"></path></g><g id="SvgjsG1099" transform="translate(512.6999969482422,298.3000030517578)"><path id="SvgjsPath1100" d="M 0 18Q 0 0 18 0L 202.99998474121094 0Q 220.99998474121094 0 220.99998474121094 18L 220.99998474121094 28Q 220.99998474121094 46 202.99998474121094 46L 18 46Q 0 46 0 28L 0 18Z" stroke="rgba(33,41,48,1)" stroke-width="2" fill-opacity="1" fill="#ffffff"></path><g id="SvgjsG1101"><text id="SvgjsText1102" font-family="微软雅黑" text-anchor="middle" font-size="18px" width="201px" fill="#323232" font-weight="400" align="middle" lineHeight="125%" anchor="middle" family="微软雅黑" size="18px" weight="400" font-style="" opacity="1" y="-3.75" transform="rotate(0)"><tspan id="SvgjsTspan1103" dy="22.5" x="110.5"><tspan id="SvgjsTspan1104" style="">pop up the window </tspan></tspan><tspan id="SvgjsTspan1105" dy="22.5" x="110.5"><tspan id="SvgjsTspan1106" style="">to prompt information</tspan></tspan></text></g></g><g id="SvgjsG1107" transform="translate(102.09999084472656,165.3000030517578)"><path id="SvgjsPath1108" d="M 0 0L 218.00003051757812 0L 218.00003051757812 40L 0 40Z" stroke="none" fill="none"></path><g id="SvgjsG1109"><text id="SvgjsText1110" font-family="微软雅黑" text-anchor="middle" font-size="18px" width="219px" fill="#323232" font-weight="400" align="middle" lineHeight="125%" anchor="middle" family="微软雅黑" size="18px" weight="400" font-style="" opacity="1" y="4.25" transform="rotate(0)"><tspan id="SvgjsTspan1111" dy="22.5" x="109.5"><tspan id="SvgjsTspan1112" style="">[have a selected activity]</tspan></tspan></text></g></g><g id="SvgjsG1113"><path id="SvgjsPath1114" d="M377.09999084472656 198.50000762939453L623.1999893188477 198.50000762939453L623.1999893188477 295.35000305175777" stroke="#323232" stroke-width="1.5" fill="none" marker-end="url(#SvgjsMarker1115)"></path></g><g id="SvgjsG1117" transform="translate(374.6999969482422,165.3000030517578)"><path id="SvgjsPath1118" d="M 0 0L 257.19996643066406 0L 257.19996643066406 40L 0 40Z" stroke="none" fill="none"></path><g id="SvgjsG1119"><text id="SvgjsText1120" font-family="微软雅黑" text-anchor="middle" font-size="18px" width="258px" fill="#323232" font-weight="400" align="middle" lineHeight="125%" anchor="middle" family="微软雅黑" size="18px" weight="400" font-style="" opacity="1" y="4.25" transform="rotate(0)"><tspan id="SvgjsTspan1121" dy="22.5" x="129"><tspan id="SvgjsTspan1122" style="">[not have a selected activity]</tspan></tspan></text></g></g><g id="SvgjsG1123" transform="translate(341.09999084472656,411.8000030517578)"><path id="SvgjsPath1124" d="M 0 16.70000457763672L 20 0L 40 16.70000457763672L 20 33.40000915527344L 0 16.70000457763672Z" stroke="rgba(33,41,48,1)" stroke-width="2" fill-opacity="1" fill="#ffffff"></path></g><g id="SvgjsG1125"><path id="SvgjsPath1126" d="M108.59999084472656 412.8000030517578L108.59999084472656 428.50000762939453L338.1499908447266 428.50000762939453" stroke="#323232" stroke-width="1.5" fill="none" marker-end="url(#SvgjsMarker1127)"></path></g><g id="SvgjsG1129"><path id="SvgjsPath1130" d="M361.09999084472656 446.20001220703125L361.09999084472656 464.50000762939453L361.09999084472656 464.50000762939453L361.09999084472656 480.85000305175777" stroke="#323232" stroke-width="1.5" fill="none" marker-end="url(#SvgjsMarker1131)"></path></g><g id="SvgjsG1133" transform="translate(460.6999969482422,469.00000381469727)"><path id="SvgjsPath1134" d="M 0 0L 116.60000610351562 0L 132.60000610351562 16L 132.60000610351562 54.79999923706055L 0 54.79999923706055L 0 0Z" stroke="rgba(33,41,48,1)" stroke-width="2" fill-opacity="1" fill="#ffffff"></path><path id="SvgjsPath1135" d="M 116.60000610351562 0L 116.60000610351562 16L 132.60000610351562 16" stroke="rgba(33,41,48,1)" stroke-width="2" fill-opacity="1" fill="#ffffff"></path><path id="SvgjsPath1136" d="M 0 0L 116.60000610351562 0L 132.60000610351562 16L 132.60000610351562 54.79999923706055L 0 54.79999923706055L 0 0Z" stroke="rgba(33,41,48,1)" stroke-width="2" fill="none"></path><g id="SvgjsG1137"><text id="SvgjsText1138" font-family="微软雅黑" text-anchor="middle" font-size="18px" width="113px" fill="#323232" font-weight="400" align="middle" lineHeight="125%" anchor="middle" family="微软雅黑" size="18px" weight="400" font-style="" opacity="1" y="11.649999618530273" transform="rotate(0)"><tspan id="SvgjsTspan1139" dy="22.5" x="66.5"><tspan id="SvgjsTspan1140" style="">Merge</tspan></tspan></text></g></g><g id="SvgjsG1141" transform="translate(157.3999786376953,464.40000343322754)"><path id="SvgjsPath1142" d="M 0 0L 116.60000610351562 0L 132.60000610351562 16L 132.60000610351562 54.79999923706055L 0 54.79999923706055L 0 0Z" stroke="rgba(33,41,48,1)" stroke-width="2" fill-opacity="1" fill="#ffffff"></path><path id="SvgjsPath1143" d="M 116.60000610351562 0L 116.60000610351562 16L 132.60000610351562 16" stroke="rgba(33,41,48,1)" stroke-width="2" fill-opacity="1" fill="#ffffff"></path><path id="SvgjsPath1144" d="M 0 0L 116.60000610351562 0L 132.60000610351562 16L 132.60000610351562 54.79999923706055L 0 54.79999923706055L 0 0Z" stroke="rgba(33,41,48,1)" stroke-width="2" fill="none"></path><g id="SvgjsG1145"><text id="SvgjsText1146" font-family="微软雅黑" text-anchor="middle" font-size="18px" width="113px" fill="#323232" font-weight="400" align="middle" lineHeight="125%" anchor="middle" family="微软雅黑" size="18px" weight="400" font-style="" opacity="1" y="0.6499996185302734" transform="rotate(0)"><tspan id="SvgjsTspan1147" dy="22.5" x="66.5"><tspan id="SvgjsTspan1148" style="">Activity</tspan></tspan><tspan id="SvgjsTspan1149" dy="22.5" x="66.5"><tspan id="SvgjsTspan1150" style="">final node</tspan></tspan></text></g></g><g id="SvgjsG1151"><path id="SvgjsPath1152" d="M458.09999084472656 464.40000343322754L382.0063243002833 428.92257084045116" stroke-dasharray="8,5" stroke="#323232" stroke-width="2" fill="none"></path></g><g id="SvgjsG1153"><path id="SvgjsPath1154" d="M340.1231781857591 503.5859072104133L289.99998474121094 492.6000061035156" stroke-dasharray="8,5" stroke="#323232" stroke-width="2" fill="none"></path></g><g id="SvgjsG1155"><path id="SvgjsPath1156" d="M354.6999969482422 154.8000030517578L354.6999969482422 167.8000030517578L354.6999969482422 167.8000030517578L354.6999969482422 178.85000305175782" stroke="#323232" stroke-width="1.5" fill="none" marker-end="url(#SvgjsMarker1157)"></path></g><g id="SvgjsG1159"><path id="SvgjsPath1160" d="M623.1999893188477 345.3000030517578L623.1999893188477 432L386.29998779296875 432" stroke="#323232" stroke-width="1.5" fill="none" marker-end="url(#SvgjsMarker1161)"></path></g></svg>