<svg id="SvgjsSvg1118" width="730.5625" height="666" xmlns="http://www.w3.org/2000/svg" version="1.1" xmlns:xlink="http://www.w3.org/1999/xlink" xmlns:svgjs="http://svgjs.com/svgjs"><defs id="SvgjsDefs1119"><pattern patternUnits="userSpaceOnUse" id="pattern_mark_0" width="300" height="300"><text x="150" y="100" fill="rgba(229,229,229,0.8)" font-size="18" transform="rotate(-45, 150, 150)" style="dominant-baseline: middle; text-anchor: middle;"></text></pattern><pattern patternUnits="userSpaceOnUse" id="pattern_mark_1" width="300" height="300"><text x="150" y="200" fill="rgba(229,229,229,0.8)" font-size="18" transform="rotate(-45, 150, 150)" style="dominant-baseline: middle; text-anchor: middle;"></text></pattern><marker id="SvgjsMarker1150" markerWidth="13" markerHeight="9" refX="9.5" refY="4.5" viewBox="0 0 13 9" orient="auto" markerUnits="userSpaceOnUse" stroke-dasharray="0,0"><path id="SvgjsPath1151" d="M0,0 L13,4.5 L0,9 L0,0" fill="#323232" stroke="#323232" stroke-width="1"></path></marker><marker id="SvgjsMarker1174" markerWidth="13" markerHeight="9" refX="9.5" refY="4.5" viewBox="0 0 13 9" orient="auto" markerUnits="userSpaceOnUse" stroke-dasharray="0,0"><path id="SvgjsPath1175" d="M0,0 L13,4.5 L0,9 L0,0" fill="#323232" stroke="#323232" stroke-width="1"></path></marker><marker id="SvgjsMarker1190" markerWidth="13" markerHeight="9" refX="9.5" refY="4.5" viewBox="0 0 13 9" orient="auto" markerUnits="userSpaceOnUse" stroke-dasharray="0,0"><path id="SvgjsPath1191" d="M0,0 L13,4.5 L0,9 L0,0" fill="#323232" stroke="#323232" stroke-width="1"></path></marker><marker id="SvgjsMarker1194" markerWidth="13" markerHeight="9" refX="9.5" refY="4.5" viewBox="0 0 13 9" orient="auto" markerUnits="userSpaceOnUse" stroke-dasharray="0,0"><path id="SvgjsPath1195" d="M0,0 L13,4.5 L0,9 L0,0" fill="#323232" stroke="#323232" stroke-width="1"></path></marker><marker id="SvgjsMarker1204" markerWidth="13" markerHeight="9" refX="9.5" refY="4.5" viewBox="0 0 13 9" orient="auto" markerUnits="userSpaceOnUse" stroke-dasharray="0,0"><path id="SvgjsPath1205" d="M0,0 L13,4.5 L0,9 L0,0" fill="#323232" stroke="#323232" stroke-width="1"></path></marker><marker id="SvgjsMarker1222" markerWidth="13" markerHeight="9" refX="9.5" refY="4.5" viewBox="0 0 13 9" orient="auto" markerUnits="userSpaceOnUse" stroke-dasharray="0,0"><path id="SvgjsPath1223" d="M0,0 L13,4.5 L0,9 L0,0" fill="#323232" stroke="#323232" stroke-width="1"></path></marker></defs><rect id="svgbackgroundid" width="730.5625" height="666" fill="transparent"></rect><rect id="SvgjsRect1121" width="730.5625" height="666" fill="url(#pattern_mark_0)"></rect><rect id="SvgjsRect1122" width="730.5625" height="666" fill="url(#pattern_mark_1)"></rect><g id="SvgjsG1123" transform="translate(75.01248168945312,226.1999969482422)"><path id="SvgjsPath1124" d="M 0 4Q 0 0 4 0L 587 0Q 591 0 591 4L 591 359.6000061035156Q 591 363.6000061035156 587 363.6000061035156L 4 363.6000061035156Q 0 363.6000061035156 0 359.6000061035156Z" stroke="rgba(33,41,48,1)" stroke-width="1.5" fill-opacity="1" fill="#ffffff"></path><path id="SvgjsPath1125" d="M 0 25L 177.29999999999998 25L 185.29999999999998 17L 185.29999999999998 0" stroke="rgba(33,41,48,1)" stroke-width="1.5" fill-opacity="1" fill="#ffffff"></path><path id="SvgjsPath1126" d="M 0 0L 591 0L 591 363.6000061035156L 0 363.6000061035156Z" stroke="none" fill="none"></path><g id="SvgjsG1127"><text id="SvgjsText1128" font-family="微软雅黑" text-anchor="start" font-size="13px" width="571px" fill="#323232" font-weight="400" align="top" lineHeight="125%" anchor="start" family="微软雅黑" size="13px" weight="400" font-style="" opacity="1" y="27.375" transform="rotate(0)"><tspan id="SvgjsTspan1129" dy="16.25" x="10"><tspan id="SvgjsTspan1130" style="">newToDoAct == null</tspan></tspan></text></g><g id="SvgjsG1131"><text id="SvgjsText1132" font-family="微软雅黑" text-anchor="start" font-size="13px" width="168px" fill="#323232" font-weight="400" align="middle" lineHeight="125%" anchor="start" family="微软雅黑" size="13px" weight="400" font-style="" opacity="1" y="1.875" transform="rotate(0)"><tspan id="SvgjsTspan1133" dy="16.25" x="10"><tspan id="SvgjsTspan1134" style="">alt</tspan></tspan></text></g></g><g id="SvgjsG1135" transform="translate(348.4707974214283,83)"><path id="SvgjsPath1136" d="M 63.14523169821365 30L 63.14523169821365 557.8000011444092" stroke-dasharray="3,4" stroke="rgba(0,0,0,1)" stroke-width="2" fill="none"></path><path id="SvgjsPath1137" d="M 0 0L 126.2904633964273 0L 126.2904633964273 30L 0 30Z" stroke="rgba(0,0,0,1)" stroke-width="1" fill-opacity="1" fill="#ffffcc"></path><g id="SvgjsG1138"><text id="SvgjsText1139" font-family="微软雅黑" text-anchor="middle" font-size="13px" width="107px" fill="#323232" font-weight="700" align="middle" lineHeight="125%" anchor="middle" family="微软雅黑" size="13px" weight="700" font-style="" opacity="1" y="4.375" transform="rotate(0)"><tspan id="SvgjsTspan1140" dy="16.25" x="63.5"><tspan id="SvgjsTspan1141" style="">:ActivityHelper</tspan></tspan></text></g></g><g id="SvgjsG1142" transform="translate(131.5749740600586,149.800048828125)"><path id="SvgjsPath1143" d="M 0 0L 243.186286757797 0L 243.186286757797 40L 0 40Z" stroke="none" fill="none"></path><g id="SvgjsG1144"><text id="SvgjsText1145" font-family="微软雅黑" text-anchor="middle" font-size="13px" width="244px" fill="#323232" font-weight="400" align="middle" lineHeight="125%" anchor="middle" family="微软雅黑" size="13px" weight="400" font-style="" opacity="1" y="9.375" transform="rotate(0)"><tspan id="SvgjsTspan1146" dy="16.25" x="122"><tspan id="SvgjsTspan1147" style="">newToDoAct =? null</tspan></tspan></text></g></g><g id="SvgjsG1148"><path id="SvgjsPath1149" d="M191.01248168945312 192.60000038146973L309.5124816894531 192.60000038146973L309.5124816894531 220.1999969482422L191.01248168945312 220.1999969482422" stroke="#323232" stroke-width="1.5" fill="none" marker-end="url(#SvgjsMarker1150)"></path></g><g id="SvgjsG1152" transform="translate(187.9124908447266,25)"><path id="SvgjsPath1153" d="M 0 0L 417.96677088211004 0L 417.96677088211004 40L 0 40Z" stroke="none" fill="none"></path><g id="SvgjsG1154"><text id="SvgjsText1155" font-family="微软雅黑" text-anchor="middle" font-size="31px" width="418px" fill="#323232" font-weight="400" align="middle" lineHeight="125%" anchor="middle" family="微软雅黑" size="31px" weight="400" font-style="" opacity="1" y="-6.375" transform="rotate(0)"><tspan id="SvgjsTspan1156" dy="38.75" x="209"><tspan id="SvgjsTspan1157" style="">design sequence diagram</tspan></tspan></text></g></g><g id="SvgjsG1158" transform="translate(141.34861071854357,83)"><path id="SvgjsPath1159" d="M 46.42507886435328 30L 46.42507886435328 557.8000011444092" stroke-dasharray="3,4" stroke="rgba(0,0,0,1)" stroke-width="2" fill="none"></path><path id="SvgjsPath1160" d="M 0 0L 92.85015772870656 0L 92.85015772870656 30L 0 30Z" stroke="rgba(0,0,0,1)" stroke-width="1" fill-opacity="1" fill="#ffffcc"></path><g id="SvgjsG1161"><text id="SvgjsText1162" font-family="微软雅黑" text-anchor="middle" font-size="13px" width="73px" fill="#323232" font-weight="700" align="middle" lineHeight="125%" anchor="middle" family="微软雅黑" size="13px" weight="700" font-style="" opacity="1" y="4.375" transform="rotate(0)"><tspan id="SvgjsTspan1163" dy="16.25" x="46.5"><tspan id="SvgjsTspan1164" style="">:Controller</tspan></tspan></text></g></g><g id="SvgjsG1165" transform="translate(501.54037244538017,79)"><path id="SvgjsPath1166" d="M 46.42507886435328 30L 46.42507886435328 561.8000011444092" stroke-dasharray="3,4" stroke="rgba(0,0,0,1)" stroke-width="2" fill="none"></path><path id="SvgjsPath1167" d="M 0 0L 92.85015772870656 0L 92.85015772870656 30L 0 30Z" stroke="rgba(0,0,0,1)" stroke-width="1" fill-opacity="1" fill="#ffffcc"></path><g id="SvgjsG1168"><text id="SvgjsText1169" font-family="微软雅黑" text-anchor="middle" font-size="13px" width="73px" fill="#323232" font-weight="700" align="middle" lineHeight="125%" anchor="middle" family="微软雅黑" size="13px" weight="700" font-style="" opacity="1" y="4.375" transform="rotate(0)"><tspan id="SvgjsTspan1170" dy="16.25" x="46.5"><tspan id="SvgjsTspan1171" style="">:layout</tspan></tspan></text></g></g><g id="SvgjsG1172"><path id="SvgjsPath1173" d="M25.012481689453125 149.1999969482422L105.01248168945312 149.1999969482422L105.01248168945312 149.1999969482422L185.01248168945312 149.1999969482422" stroke="#323232" stroke-width="1.5" fill="none" marker-end="url(#SvgjsMarker1174)"></path></g><g id="SvgjsG1176" transform="translate(52.012481689453125,117.19999694824219)"><path id="SvgjsPath1177" d="M 0 0L 100 0L 100 40L 0 40Z" stroke="none" fill="none"></path><g id="SvgjsG1178"><text id="SvgjsText1179" font-family="微软雅黑" text-anchor="middle" font-size="13px" width="100px" fill="#323232" font-weight="400" align="middle" lineHeight="125%" anchor="middle" family="微软雅黑" size="13px" weight="400" font-style="" opacity="1" y="9.375" transform="rotate(0)"><tspan id="SvgjsTspan1180" dy="16.25" x="50"><tspan id="SvgjsTspan1181" style="">button.onClick()</tspan></tspan></text></g></g><g id="SvgjsG1182" transform="translate(187.9124908447266,262.1483778625954)"><path id="SvgjsPath1183" d="M 0 0L 232 0L 232 48.75L 0 48.75Z" stroke="none" fill="none"></path><g id="SvgjsG1184"><text id="SvgjsText1185" font-family="微软雅黑" text-anchor="middle" font-size="13px" width="232px" fill="#323232" font-weight="400" align="middle" lineHeight="125%" anchor="middle" family="微软雅黑" size="13px" weight="400" font-style="" opacity="1" y="13.75" transform="rotate(0)"><tspan id="SvgjsTspan1186" dy="16.25" x="116"><tspan id="SvgjsTspan1187" style="">setCurrentActivity(newToDoAct);</tspan></tspan></text></g></g><g id="SvgjsG1188"><path id="SvgjsPath1189" d="M198.01248168945312 304.8000011444092L302.0124816894531 304.8000011444092L302.0124816894531 304.8000011444092L406.0124816894531 304.8000011444092" stroke-dasharray="8,5" stroke="#323232" stroke-width="1.5" fill="none" marker-end="url(#SvgjsMarker1190)"></path></g><g id="SvgjsG1192"><path id="SvgjsPath1193" d="M200.01248168945312 367.8000011444092L367.5124816894531 367.8000011444092L367.5124816894531 367.8000011444092L535.0124816894531 367.8000011444092" stroke-dasharray="8,5" stroke="#323232" stroke-width="1.5" fill="none" marker-end="url(#SvgjsMarker1194)"></path></g><g id="SvgjsG1196" transform="translate(187.9124908447266,327.1999969482422)"><path id="SvgjsPath1197" d="M 0 0L 385.4780393293602 0L 385.4780393293602 40L 0 40Z" stroke="none" fill="none"></path><g id="SvgjsG1198"><text id="SvgjsText1199" font-family="微软雅黑" text-anchor="middle" font-size="13px" width="386px" fill="#323232" font-weight="400" align="middle" lineHeight="125%" anchor="middle" family="微软雅黑" size="13px" weight="400" font-style="" opacity="1" y="9.375" transform="rotate(0)"><tspan id="SvgjsTspan1200" dy="16.25" x="193"><tspan id="SvgjsTspan1201" style="">button.setBackgroundResource(R.drawable.button_playing);</tspan></tspan></text></g></g><g id="SvgjsG1202"><path id="SvgjsPath1203" d="M194.01248168945312 422.6000003814697L312.5124816894531 422.6000003814697L312.5124816894531 450.1999969482422L194.01248168945312 450.1999969482422" stroke="#323232" stroke-width="1.5" fill="none" marker-end="url(#SvgjsMarker1204)"></path></g><g id="SvgjsG1206" transform="translate(203.1681174389571,388)"><path id="SvgjsPath1207" d="M 0 0L 141.84436425049603 0L 141.84436425049603 40L 0 40Z" stroke="none" fill="none"></path><g id="SvgjsG1208"><text id="SvgjsText1209" font-family="微软雅黑" text-anchor="middle" font-size="13px" width="142px" fill="#323232" font-weight="400" align="middle" lineHeight="125%" anchor="middle" family="微软雅黑" size="13px" weight="400" font-style="" opacity="1" y="9.375" transform="rotate(0)"><tspan id="SvgjsTspan1210" dy="16.25" x="71"><tspan id="SvgjsTspan1211" style="">onActivityChanged()</tspan></tspan></text></g></g><g id="SvgjsG1212"><path id="SvgjsPath1213" d="M84.01248168945312 461L373.5124816894531 461L373.5124816894531 461L663.0124816894531 461" stroke-dasharray="8,5" stroke="#323232" stroke-width="1.5" fill="none"></path></g><g id="SvgjsG1214" transform="translate(81.01248168945312,466)"><path id="SvgjsPath1215" d="M 0 0L 164 0L 164 40L 0 40Z" stroke="none" fill="none"></path><g id="SvgjsG1216"><text id="SvgjsText1217" font-family="微软雅黑" text-anchor="middle" font-size="13px" width="164px" fill="#323232" font-weight="400" align="middle" lineHeight="125%" anchor="middle" family="微软雅黑" size="13px" weight="400" font-style="" opacity="1" y="9.375" transform="rotate(0)"><tspan id="SvgjsTspan1218" dy="16.25" x="82"><tspan id="SvgjsTspan1219" style="">newToDoAct != null</tspan></tspan></text></g></g><g id="SvgjsG1220"><path id="SvgjsPath1221" d="M193.01248168945312 553.6000003814697L311.5124816894531 553.6000003814697L311.5124816894531 581.1999969482422L193.01248168945312 581.1999969482422" stroke="#323232" stroke-width="1.5" fill="none" marker-end="url(#SvgjsMarker1222)"></path></g><g id="SvgjsG1224" transform="translate(131.5749740600586,518.1016221374045)"><path id="SvgjsPath1225" d="M 0 0L 573.844364250496 0L 573.844364250496 40L 0 40Z" stroke="none" fill="none"></path><g id="SvgjsG1226"><text id="SvgjsText1227" font-family="微软雅黑" text-anchor="middle" font-size="13px" width="574px" fill="#323232" font-weight="400" align="middle" lineHeight="125%" anchor="middle" family="微软雅黑" size="13px" weight="400" font-style="" opacity="1" y="9.375" transform="rotate(0)"><tspan id="SvgjsTspan1228" dy="16.25" x="287"><tspan id="SvgjsTspan1229" style="">Toast.makeText( "To perform this action it is necessary to select an activity first");</tspan></tspan></text></g></g></svg>