<svg id="SvgjsSvg1147" width="742.2624816894531" height="608.5875091552734" xmlns="http://www.w3.org/2000/svg" version="1.1" xmlns:xlink="http://www.w3.org/1999/xlink" xmlns:svgjs="http://svgjs.com/svgjs"><defs id="SvgjsDefs1148"><pattern patternUnits="userSpaceOnUse" id="pattern_mark_0" width="300" height="300"><text x="150" y="100" fill="rgba(229,229,229,0.8)" font-size="18" transform="rotate(-45, 150, 150)" style="dominant-baseline: middle; text-anchor: middle;"></text></pattern><pattern patternUnits="userSpaceOnUse" id="pattern_mark_1" width="300" height="300"><text x="150" y="200" fill="rgba(229,229,229,0.8)" font-size="18" transform="rotate(-45, 150, 150)" style="dominant-baseline: middle; text-anchor: middle;"></text></pattern><marker id="SvgjsMarker1166" markerWidth="12" markerHeight="8" refX="9" refY="4" viewBox="0 0 12 8" orient="auto" markerUnits="userSpaceOnUse" stroke-dasharray="0,0"><path id="SvgjsPath1167" d="M0,0 L12,4 L0,8 L0,0" fill="#323232" stroke="#323232" stroke-width="1"></path></marker><marker id="SvgjsMarker1240" markerWidth="13" markerHeight="9" refX="9.5" refY="4.5" viewBox="0 0 13 9" orient="auto" markerUnits="userSpaceOnUse" stroke-dasharray="0,0"><path id="SvgjsPath1241" d="M0,0 L13,4.5 L0,9 L0,0" fill="#323232" stroke="#323232" stroke-width="1"></path></marker><marker id="SvgjsMarker1244" markerWidth="13" markerHeight="9" refX="9.5" refY="4.5" viewBox="0 0 13 9" orient="auto" markerUnits="userSpaceOnUse" stroke-dasharray="0,0"><path id="SvgjsPath1245" d="M0,0 L13,4.5 L0,9 L0,0" fill="#323232" stroke="#323232" stroke-width="1"></path></marker><marker id="SvgjsMarker1248" markerWidth="13" markerHeight="9" refX="9.5" refY="4.5" viewBox="0 0 13 9" orient="auto" markerUnits="userSpaceOnUse" stroke-dasharray="0,0"><path id="SvgjsPath1249" d="M0,0 L13,4.5 L0,9 L0,0" fill="#323232" stroke="#323232" stroke-width="1"></path></marker><marker id="SvgjsMarker1286" markerWidth="12" markerHeight="8" refX="9" refY="4" viewBox="0 0 12 8" orient="auto" markerUnits="userSpaceOnUse" stroke-dasharray="0,0"><path id="SvgjsPath1287" d="M0,0 L12,4 L0,8 L0,0" fill="#323232" stroke="#323232" stroke-width="1"></path></marker></defs><rect id="svgbackgroundid" width="742.2624816894531" height="608.5875091552734" fill="transparent"></rect><rect id="SvgjsRect1150" width="742.2624816894531" height="608.5875091552734" fill="url(#pattern_mark_0)"></rect><rect id="SvgjsRect1151" width="742.2624816894531" height="608.5875091552734" fill="url(#pattern_mark_1)"></rect><g id="SvgjsG1152" transform="translate(263.4236229255748,112.7266221374046)"><path id="SvgjsPath1153" d="M 46.42507886435328 30L 46.42507886435328 415.0467557251908" stroke-dasharray="3,4" stroke="rgba(0,0,0,1)" stroke-width="2" fill="none"></path><path id="SvgjsPath1154" d="M 0 0L 92.85015772870656 0L 92.85015772870656 30L 0 30Z" stroke="rgba(0,0,0,1)" stroke-width="1" fill-opacity="1" fill="#ffffcc"></path><g id="SvgjsG1155"><text id="SvgjsText1156" font-family="微软雅黑" text-anchor="middle" font-size="13px" width="73px" fill="#323232" font-weight="700" align="middle" lineHeight="125%" anchor="middle" family="微软雅黑" size="13px" weight="700" font-style="" opacity="1" y="4.375" transform="rotate(0)"><tspan id="SvgjsTspan1157" dy="16.25" x="46.5"><tspan id="SvgjsTspan1158" style="">System</tspan></tspan></text></g></g><g id="SvgjsG1159" transform="translate(66.16494784671053,76)"><path id="SvgjsPath1160" d="M 12.274185068349102 5.875C 12.274185068349102 -1.9583333333333333 24.548370136698203 -1.9583333333333333 24.548370136698203 5.875C 24.548370136698203 13.708333333333334 12.274185068349102 13.708333333333334 12.274185068349102 5.875M 18.411277602523654 11.75L 18.411277602523654 35.25M 18.411277602523654 35.25L 3.0685462670872754 47M 18.411277602523654 35.25L 33.75400893796003 47M 0 23.5L 36.82255520504731 23.5" stroke="rgba(33,41,48,1)" stroke-width="1" fill-opacity="1" fill="#ffffff"></path><path id="SvgjsPath1161" d="M 0 0L 36.82255520504731 0L 36.82255520504731 47L 0 47Z" stroke="none" fill="none"></path><g id="SvgjsG1162"><text id="SvgjsText1163" font-family="微软雅黑" text-anchor="middle" font-size="13px" width="77px" fill="#323232" font-weight="400" align="middle" lineHeight="125%" anchor="middle" family="微软雅黑" size="13px" weight="400" font-style="" opacity="1" y="51.375" transform="rotate(0)"></text></g></g><g id="SvgjsG1164"><path id="SvgjsPath1165" d="M325.4875030517578 243L382.4875030517578 243L382.4875030517578 290L325.4875030517578 290" stroke="#323232" stroke-width="1" fill="none" marker-end="url(#SvgjsMarker1166)"></path></g><g id="SvgjsG1168" transform="translate(25.009312097206532,123.4000244140625)"><path id="SvgjsPath1169" d="M 0 0L 112.311271499008 0L 112.311271499008 31.5999755859375L 0 31.5999755859375Z" stroke="none" fill="none"></path><g id="SvgjsG1170"><text id="SvgjsText1171" font-family="微软雅黑" text-anchor="middle" font-size="20px" width="113px" fill="#323232" font-weight="400" align="middle" lineHeight="125%" anchor="middle" family="微软雅黑" size="20px" weight="400" font-style="" opacity="1" y="-2.20001220703125" transform="rotate(0)"><tspan id="SvgjsTspan1172" dy="25" x="56.5"><tspan id="SvgjsTspan1173" style="nullfill: rgb(50, 50, 50);">Uesr</tspan></tspan></text></g></g><g id="SvgjsG1174" transform="translate(28.920589699730186,136.4000244140625)"><path id="SvgjsPath1175" d="M 0 0L 111.311271499008 0L 111.311271499008 40L 0 40Z" stroke="none" fill="none"></path><g id="SvgjsG1176"><text id="SvgjsText1177" font-family="微软雅黑" text-anchor="middle" font-size="13px" width="112px" fill="#323232" font-weight="400" align="middle" lineHeight="125%" anchor="middle" family="微软雅黑" size="13px" weight="400" font-style="" opacity="1" y="9.375" transform="rotate(0)"><tspan id="SvgjsTspan1178" dy="16.25" x="56"><tspan id="SvgjsTspan1179" style="nullfill: rgb(50, 50, 50);">«initiating actor»</tspan></tspan></text></g></g><g id="SvgjsG1180"><path id="SvgjsPath1181" d="M81.16494784671053 177.4000244140625L81.16494784671053 346.10001277923584L81.16494784671053 346.10001277923584L81.16494784671053 515.8000011444092" stroke-dasharray="3,3" stroke="#323232" stroke-width="1.5" fill="none"></path></g><g id="SvgjsG1182" transform="translate(439.465542381118,80)"><path id="SvgjsPath1183" d="M 12.274185068349102 5.875C 12.274185068349102 -1.9583333333333333 24.548370136698203 -1.9583333333333333 24.548370136698203 5.875C 24.548370136698203 13.708333333333334 12.274185068349102 13.708333333333334 12.274185068349102 5.875M 18.411277602523654 11.75L 18.411277602523654 35.25M 18.411277602523654 35.25L 3.0685462670872754 47M 18.411277602523654 35.25L 33.75400893796003 47M 0 23.5L 36.82255520504731 23.5" stroke="rgba(33,41,48,1)" stroke-width="1" fill-opacity="1" fill="#ffffff"></path><path id="SvgjsPath1184" d="M 0 0L 36.82255520504731 0L 36.82255520504731 47L 0 47Z" stroke="none" fill="none"></path><g id="SvgjsG1185"><text id="SvgjsText1186" font-family="微软雅黑" text-anchor="middle" font-size="13px" width="77px" fill="#323232" font-weight="400" align="middle" lineHeight="125%" anchor="middle" family="微软雅黑" size="13px" weight="400" font-style="" opacity="1" y="51.375" transform="rotate(0)"></text></g></g><g id="SvgjsG1187"><path id="SvgjsPath1188" d="M454.465542381118 180.4000244140625L454.465542381118 350.10001277923584L454.465542381118 350.10001277923584L454.465542381118 519.8000011444092" stroke-dasharray="3,3" stroke="#323232" stroke-width="1.5" fill="none"></path></g><g id="SvgjsG1189" transform="translate(555.0350643603206,76)"><path id="SvgjsPath1190" d="M 12.274185068349102 5.875C 12.274185068349102 -1.9583333333333333 24.548370136698203 -1.9583333333333333 24.548370136698203 5.875C 24.548370136698203 13.708333333333334 12.274185068349102 13.708333333333334 12.274185068349102 5.875M 18.411277602523654 11.75L 18.411277602523654 35.25M 18.411277602523654 35.25L 3.0685462670872754 47M 18.411277602523654 35.25L 33.75400893796003 47M 0 23.5L 36.82255520504731 23.5" stroke="rgba(33,41,48,1)" stroke-width="1" fill-opacity="1" fill="#ffffff"></path><path id="SvgjsPath1191" d="M 0 0L 36.82255520504731 0L 36.82255520504731 47L 0 47Z" stroke="none" fill="none"></path><g id="SvgjsG1192"><text id="SvgjsText1193" font-family="微软雅黑" text-anchor="middle" font-size="13px" width="77px" fill="#323232" font-weight="400" align="middle" lineHeight="125%" anchor="middle" family="微软雅黑" size="13px" weight="400" font-style="" opacity="1" y="51.375" transform="rotate(0)"></text></g></g><g id="SvgjsG1194"><path id="SvgjsPath1195" d="M581.232240382053 177L581.232240382053 345.9000005722046L581.232240382053 345.9000005722046L581.232240382053 515.8000011444092" stroke-dasharray="3,3" stroke="#323232" stroke-width="1.5" fill="none"></path></g><g id="SvgjsG1196" transform="translate(364.0874938964844,123)"><path id="SvgjsPath1197" d="M 0 0L 147.72256436032058 0L 147.72256436032058 31.5999755859375L 0 31.5999755859375Z" stroke="none" fill="none"></path><g id="SvgjsG1198"><text id="SvgjsText1199" font-family="微软雅黑" text-anchor="middle" font-size="20px" width="148px" fill="#323232" font-weight="400" align="middle" lineHeight="125%" anchor="middle" family="微软雅黑" size="20px" weight="400" font-style="" opacity="1" y="-2.20001220703125" transform="rotate(0)"><tspan id="SvgjsTspan1200" dy="25" x="74"><tspan id="SvgjsTspan1201" style="">ActivityHelper</tspan></tspan></text></g></g><g id="SvgjsG1202" transform="translate(395.5217787685451,136.4000244140625)"><path id="SvgjsPath1203" d="M 0 0L 124.7100824301931 0L 124.7100824301931 40L 0 40Z" stroke="none" fill="none"></path><g id="SvgjsG1204"><text id="SvgjsText1205" font-family="微软雅黑" text-anchor="middle" font-size="13px" width="125px" fill="#323232" font-weight="400" align="middle" lineHeight="125%" anchor="middle" family="微软雅黑" size="13px" weight="400" font-style="" opacity="1" y="9.375" transform="rotate(0)"><tspan id="SvgjsTspan1206" dy="16.25" x="62.5"><tspan id="SvgjsTspan1207" style="nullfill: rgb(50, 50, 50);">«supporting actor»</tspan></tspan></text></g></g><g id="SvgjsG1208" transform="translate(519.623771499008,101.29998779296875)"><path id="SvgjsPath1209" d="M 0 0L 112.311271499008 0L 112.311271499008 65L 0 65Z" stroke="none" fill="none"></path><g id="SvgjsG1210"><text id="SvgjsText1211" font-family="微软雅黑" text-anchor="middle" font-size="20px" width="113px" fill="#323232" font-weight="400" align="middle" lineHeight="125%" anchor="middle" family="微软雅黑" size="20px" weight="400" font-style="" opacity="1" y="14.5" transform="rotate(0)"><tspan id="SvgjsTspan1212" dy="25" x="56.5"><tspan id="SvgjsTspan1213" style="nullfill: rgb(50, 50, 50);">Layout</tspan></tspan></text></g></g><g id="SvgjsG1214" transform="translate(518.8771991669564,136)"><path id="SvgjsPath1215" d="M 0 0L 124.7100824301931 0L 124.7100824301931 40L 0 40Z" stroke="none" fill="none"></path><g id="SvgjsG1216"><text id="SvgjsText1217" font-family="微软雅黑" text-anchor="middle" font-size="13px" width="125px" fill="#323232" font-weight="400" align="middle" lineHeight="125%" anchor="middle" family="微软雅黑" size="13px" weight="400" font-style="" opacity="1" y="9.375" transform="rotate(0)"><tspan id="SvgjsTspan1218" dy="16.25" x="62.5"><tspan id="SvgjsTspan1219" style="nullfill: rgb(50, 50, 50);">«supporting actor»</tspan></tspan></text></g></g><g id="SvgjsG1220" transform="translate(73.08749389648438,184.800048828125)"><path id="SvgjsPath1221" d="M 0 0L 243.186286757797 0L 243.186286757797 40L 0 40Z" stroke="none" fill="none"></path><g id="SvgjsG1222"><text id="SvgjsText1223" font-family="微软雅黑" text-anchor="middle" font-size="13px" width="244px" fill="#323232" font-weight="400" align="middle" lineHeight="125%" anchor="middle" family="微软雅黑" size="13px" weight="400" font-style="" opacity="1" y="9.375" transform="rotate(0)"><tspan id="SvgjsTspan1224" dy="16.25" x="122"><tspan id="SvgjsTspan1225" style="">click the Start Button</tspan></tspan></text></g></g><g id="SvgjsG1226" transform="translate(312.5217787685451,190.22500038146973)"><path id="SvgjsPath1227" d="M 0 0L 100 0L 100 48.75L 0 48.75Z" stroke="none" fill="none"></path><g id="SvgjsG1228"><text id="SvgjsText1229" font-family="微软雅黑" text-anchor="middle" font-size="13px" width="100px" fill="#323232" font-weight="400" align="middle" lineHeight="125%" anchor="middle" family="微软雅黑" size="13px" weight="400" font-style="" opacity="1" y="-2.75" transform="rotate(0)"><tspan id="SvgjsTspan1230" dy="16.25" x="50"><tspan id="SvgjsTspan1231" style="">determine that </tspan></tspan><tspan id="SvgjsTspan1232" dy="16.25" x="50"><tspan id="SvgjsTspan1233" style="">there is a </tspan></tspan><tspan id="SvgjsTspan1234" dy="16.25" x="50"><tspan id="SvgjsTspan1235" style="">selected activity</tspan></tspan></text></g></g><g id="SvgjsG1236"><path id="SvgjsPath1237" d="M81.16494784671053 176.4000244140625L81.16494784671053 346.10001277923584L81.16494784671053 346.10001277923584L81.16494784671053 515.8000011444092" stroke-dasharray="3,3" stroke="#323232" stroke-width="1.5" fill="none"></path></g><g id="SvgjsG1238"><path id="SvgjsPath1239" d="M112.08749389648438 217.60000038146973L192.08749389648438 217.60000038146973L192.08749389648438 217.60000038146973L272.0874938964844 217.60000038146973" stroke="#323232" stroke-width="1.5" fill="none" marker-end="url(#SvgjsMarker1240)"></path></g><g id="SvgjsG1242"><path id="SvgjsPath1243" d="M307.0874938964844 342.6000003814697L387.0874938964844 342.6000003814697L387.0874938964844 342.6000003814697L467.0874938964844 342.6000003814697" stroke-dasharray="8,5" stroke="#323232" stroke-width="1.5" fill="none" marker-end="url(#SvgjsMarker1244)"></path></g><g id="SvgjsG1246"><path id="SvgjsPath1247" d="M311.0874938964844 484.6000003814697L448.5874938964844 484.6000003814697L448.5874938964844 484.6000003814697L586.0874938964844 484.6000003814697" stroke-dasharray="8,5" stroke="#323232" stroke-width="1.5" fill="none" marker-end="url(#SvgjsMarker1248)"></path></g><g id="SvgjsG1250" transform="translate(331.465542381118,303.40009784698486)"><path id="SvgjsPath1251" d="M 0 0L 100 0L 100 40L 0 40Z" stroke="none" fill="none"></path><g id="SvgjsG1252"><text id="SvgjsText1253" font-family="微软雅黑" text-anchor="middle" font-size="13px" width="100px" fill="#323232" font-weight="400" align="middle" lineHeight="125%" anchor="middle" family="微软雅黑" size="13px" weight="400" font-style="" opacity="1" y="0.875" transform="rotate(0)"><tspan id="SvgjsTspan1254" dy="16.25" x="50"><tspan id="SvgjsTspan1255" style="">set current </tspan></tspan><tspan id="SvgjsTspan1256" dy="16.25" x="50"><tspan id="SvgjsTspan1257" style="">activity</tspan></tspan></text></g></g><g id="SvgjsG1258" transform="translate(463.7765181388012,447.40009784698486)"><path id="SvgjsPath1259" d="M 0 0L 106 0L 106 40L 0 40Z" stroke="none" fill="none"></path><g id="SvgjsG1260"><text id="SvgjsText1261" font-family="微软雅黑" text-anchor="middle" font-size="13px" width="106px" fill="#323232" font-weight="400" align="middle" lineHeight="125%" anchor="middle" family="微软雅黑" size="13px" weight="400" font-style="" opacity="1" y="0.875" transform="rotate(0)"><tspan id="SvgjsTspan1262" dy="16.25" x="53"><tspan id="SvgjsTspan1263" style="">set button's </tspan></tspan><tspan id="SvgjsTspan1264" dy="16.25" x="53"><tspan id="SvgjsTspan1265" style="">background</tspan></tspan></text></g></g><g id="SvgjsG1266" transform="translate(253.27378065428138,543.5999526977539)"><path id="SvgjsPath1267" d="M 0 0L 464.21372239747643 0L 464.21372239747643 40L 0 40Z" stroke="none" fill="none"></path><g id="SvgjsG1268"><text id="SvgjsText1269" font-family="微软雅黑" text-anchor="middle" font-size="22px" width="465px" fill="#323232" font-weight="400" align="middle" lineHeight="125%" anchor="middle" family="微软雅黑" size="22px" weight="400" font-style="" opacity="1" y="0.25" transform="rotate(0)"><tspan id="SvgjsTspan1270" dy="27.5" x="232.5"><tspan id="SvgjsTspan1271" style="">Main success scenario</tspan></tspan></text></g></g><g id="SvgjsG1272" transform="translate(150.12072301437433,25)"><path id="SvgjsPath1273" d="M 0 0L 394.96677088211004 0L 394.96677088211004 40L 0 40Z" stroke="none" fill="none"></path><g id="SvgjsG1274"><text id="SvgjsText1275" font-family="微软雅黑" text-anchor="middle" font-size="31px" width="395px" fill="#323232" font-weight="400" align="middle" lineHeight="125%" anchor="middle" family="微软雅黑" size="31px" weight="400" font-style="" opacity="1" y="-6.375" transform="rotate(0)"><tspan id="SvgjsTspan1276" dy="38.75" x="197.5"><tspan id="SvgjsTspan1277" style="">Use case: Start Activity</tspan></tspan></text></g></g><g id="SvgjsG1278" transform="translate(312.5217787685451,364.20000076293945)"><path id="SvgjsPath1279" d="M 0 0L 100 0L 100 40L 0 40Z" stroke="none" fill="none"></path><g id="SvgjsG1280"><text id="SvgjsText1281" font-family="微软雅黑" text-anchor="middle" font-size="13px" width="100px" fill="#323232" font-weight="400" align="middle" lineHeight="125%" anchor="middle" family="微软雅黑" size="13px" weight="400" font-style="" opacity="1" y="9.375" transform="rotate(0)"><tspan id="SvgjsTspan1282" dy="16.25" x="50"><tspan id="SvgjsTspan1283" style="">set activity title</tspan></tspan></text></g></g><g id="SvgjsG1284"><path id="SvgjsPath1285" d="M322.4875030517578 399L379.4875030517578 399L379.4875030517578 446L322.4875030517578 446" stroke="#323232" stroke-width="1" fill="none" marker-end="url(#SvgjsMarker1286)"></path></g></svg>